<svg width="128" height="128" viewBox="0 0 128 128" fill="none" xmlns="http://www.w3.org/2000/svg">
  <rect width="128" height="128" rx="24" fill="#FFF6E6"/>
  <circle cx="64" cy="66" r="34" fill="#FFD9B3" stroke="#2B2B2B" stroke-width="3"/>
  <path d="M30 50C35 30 49 24 64 24C79 24 93 30 98 50" fill="#1E1E1E"/>
  <path d="M30 50C35 30 49 24 64 24C79 24 93 30 98 50" stroke="#1E1E1E" stroke-width="3" stroke-linecap="round"/>
  <ellipse cx="50" cy="65" rx="4.5" ry="6" fill="#1E1E1E"/>
  <ellipse cx="78" cy="65" rx="4.5" ry="6" fill="#1E1E1E"/>
  <path d="M49 52L39 50" stroke="#1E1E1E" stroke-width="3.5" stroke-linecap="round"/>
  <path d="M89 50L79 52" stroke="#1E1E1E" stroke-width="3.5" stroke-linecap="round"/>
  <path d="M52 84C59 90 69 90 76 84" stroke="#C53B2D" stroke-width="4" stroke-linecap="round"/>
  <rect x="47" y="95" width="34" height="19" rx="8" fill="#17A34A" stroke="#1E1E1E" stroke-width="2.5"/>
  <path d="M64 95V114" stroke="#1E1E1E" stroke-width="2"/>
  <circle cx="64" cy="13" r="5" fill="#F59E0B"/>
</svg>
